<?xml version="1.0" encoding="UTF-8" standalone="no"?>
<!-- Generator: Adobe Illustrator 16.0.0, SVG Export Plug-In . SVG Version: 6.00 Build 0)  -->

<svg
   xmlns:dc="http://purl.org/dc/elements/1.1/"
   xmlns:cc="http://creativecommons.org/ns#"
   xmlns:rdf="http://www.w3.org/1999/02/22-rdf-syntax-ns#"
   xmlns:svg="http://www.w3.org/2000/svg"
   xmlns="http://www.w3.org/2000/svg"
   xmlns:sodipodi="http://sodipodi.sourceforge.net/DTD/sodipodi-0.dtd"
   xmlns:inkscape="http://www.inkscape.org/namespaces/inkscape"
   version="1.1"
   id="Layer_1"
   x="0px"
   y="0px"
   width="209.236px"
   height="306.039px"
   viewBox="0 0 209.236 306.039"
   enable-background="new 0 0 209.236 306.039"
   xml:space="preserve"
   sodipodi:docname="Manukau Logo.svg"
   inkscape:version="0.92.1 r15371"><metadata
     id="metadata121"><rdf:RDF><cc:Work
         rdf:about=""><dc:format>image/svg+xml</dc:format><dc:type
           rdf:resource="http://purl.org/dc/dcmitype/StillImage" /></cc:Work></rdf:RDF></metadata><defs
     id="defs119" /><sodipodi:namedview
     pagecolor="#ffffff"
     bordercolor="#666666"
     borderopacity="1"
     objecttolerance="10"
     gridtolerance="10"
     guidetolerance="10"
     inkscape:pageopacity="0"
     inkscape:pageshadow="2"
     inkscape:window-width="1920"
     inkscape:window-height="1017"
     id="namedview117"
     showgrid="false"
     inkscape:zoom="0.77114354"
     inkscape:cx="104.618"
     inkscape:cy="153.0195"
     inkscape:window-x="-8"
     inkscape:window-y="-8"
     inkscape:window-maximized="1"
     inkscape:current-layer="Layer_1" /><g
     id="g114"
     style="fill:#ffffff;fill-opacity:1"><path
       fill-rule="evenodd"
       clip-rule="evenodd"
       d="M82.772,0c-3.292,2.237-6.759,4.258-9.842,6.753   c-9.207,7.449-15.373,17.116-19.689,28.031c-3.804,9.619-5.854,19.645-6.767,29.923c-0.088,0.995-0.164,1.991-0.238,2.987   c-0.009,0.116,0.028,0.235,0.058,0.456c38.723,0,77.449,0,116.385,0c0.529-13.838-2.377-26.831-8.827-39.013   c-6.484-12.249-15.97-21.653-27.691-29.037c0.463,0.089,0.944,0.124,1.386,0.273c18.715,6.354,32.794,18.225,42.106,35.65   c6.245,11.687,8.852,24.24,8.306,37.454c-0.094,2.271-0.458,4.531-0.621,6.801c-0.059,0.827-0.396,1.075-1.174,1.104   c-4.99,0.188-9.978,0.487-14.969,0.605c-9.35,0.22-18.702,0.433-28.054,0.483c-13.872,0.074-27.737-0.305-41.579-1.263   c-13.801-0.956-27.545-2.39-41.063-5.481c-6.083-1.392-12.038-3.178-17.735-5.776c-1.075-0.49-1.418-1.098-1.368-2.264   c0.673-15.671,5.602-29.825,15.173-42.274C55.316,14.034,66.486,5.904,79.998,1.025c0.933-0.337,1.899-0.584,2.85-0.873   C82.822,0.101,82.797,0.051,82.772,0z"
       id="path2"
       style="fill:#ffffff;fill-opacity:1" /><path
       fill-rule="evenodd"
       clip-rule="evenodd"
       d="M33.715,88.269c47.153,0,94.198,0,141.242,0c0.015,0.072,0.03,0.144,0.045,0.216   c-3.654,0.945-7.294,1.95-10.965,2.825c-14.082,3.357-28.337,5.744-42.713,7.404c-11.317,1.308-22.67,2.141-34.061,2.515   c-14.675,0.482-29.33,0.211-43.974-0.815c-1.554-0.109-3.107-0.246-4.656-0.414c-0.311-0.034-0.763-0.188-0.875-0.42   C36.019,95.979,34.67,92.237,33.715,88.269z"
       id="path4"
       style="fill:#ffffff;fill-opacity:1" /><path
       fill-rule="evenodd"
       clip-rule="evenodd"
       d="M42.846,107.835c41.496,0,82.992,0,124.71,0c-0.56,0.896-0.979,1.695-1.518,2.403   c-2.322,3.049-4.654,6.091-7.05,9.082c-0.345,0.431-1.034,0.757-1.598,0.816c-14.987,1.586-29.996,1.6-45.015,0.515   c-23.267-1.681-46.11-5.724-68.503-12.278c-0.37-0.108-0.733-0.241-1.099-0.362C42.798,107.952,42.822,107.894,42.846,107.835z"
       id="path6"
       style="fill:#ffffff;fill-opacity:1" /><path
       fill-rule="evenodd"
       clip-rule="evenodd"
       d="M59.377,127.545c30.232,3.714,60.435,4.44,90.677,0.01   c-11.729,9.279-25.057,14.56-39.997,15.598C91.173,144.464,74.293,139.141,59.377,127.545z"
       id="path8"
       style="fill:#ffffff;fill-opacity:1" /><path
       fill-rule="evenodd"
       clip-rule="evenodd"
       d="M32.35,210.324c-2.476,0-4.865,0-7.363,0c0-7.268,0-14.49,0-21.711   c-0.079-0.028-0.158-0.057-0.237-0.085c-0.165,0.268-0.349,0.526-0.493,0.805c-1.889,3.654-3.77,7.311-5.659,10.964   c-0.268,0.519-0.473,1.009-1.283,0.996c-0.767-0.013-1.022-0.385-1.313-0.951c-1.913-3.73-3.848-7.45-5.779-11.17   c-0.122-0.235-0.271-0.457-0.61-0.648c0,7.238,0,14.476,0,21.782c-2.555,0-4.971,0-7.45,0c0-11.583,0-23.126,0-34.84   c2.264,0,4.527-0.033,6.788,0.04c0.294,0.01,0.645,0.522,0.844,0.874c2.259,4,4.492,8.013,6.736,12.021   c0.211,0.376,0.443,0.742,0.747,1.249c0.284-0.468,0.51-0.816,0.713-1.177c2.265-4.042,4.541-8.078,6.774-12.136   c0.353-0.641,0.742-0.915,1.487-0.896c1.996,0.049,3.995,0.017,6.1,0.017C32.35,187.093,32.35,198.662,32.35,210.324z"
       id="path10"
       style="fill:#ffffff;fill-opacity:1" /><path
       fill-rule="evenodd"
       clip-rule="evenodd"
       d="M74.398,190.284c0,6.646,0,13.291,0,20.012c-2.523,0-4.939,0-7.427,0   c0-11.581,0-23.149,0-34.837c2.316,0,4.588-0.03,6.858,0.037c0.296,0.009,0.687,0.464,0.851,0.801   c2.768,5.709,5.505,11.433,8.252,17.152c0.181,0.376,0.387,0.741,0.775,1.064c0-6.291,0-12.581,0-18.965c2.561,0,5.016,0,7.551,0   c0,11.564,0,23.097,0,34.807c-2.202,0-4.421,0.027-6.637-0.039c-0.241-0.007-0.528-0.527-0.689-0.859   c-2.939-6.07-5.862-12.148-8.792-18.223c-0.166-0.343-0.361-0.671-0.542-1.005C74.531,190.246,74.465,190.265,74.398,190.284z"
       id="path12"
       style="fill:#ffffff;fill-opacity:1" /><path
       fill-rule="evenodd"
       clip-rule="evenodd"
       d="M83.607,46.448c5.432-5.263,12.351-8.119,20.178-9.483   c-2.546-4.566-5.749-8.379-9.673-11.594c-3.894-3.19-8.275-5.534-12.953-7.368c8.571,0.63,16.492,2.992,23.191,8.739   c6.593-5.328,14.322-7.624,22.526-8.791c-8.967,4.315-16.757,9.958-21.879,18.995c7.764,1.242,14.511,4.504,20.651,9.435   c5.841-5.71,13.07-8.374,20.956-9.484c-2.126,1.262-4.385,2.381-6.387,3.85c-2.083,1.528-4.043,3.274-5.826,5.146   c-1.756,1.844-3.319,3.896-4.788,5.982c-1.468,2.085-2.714,4.326-4.084,6.54c-1.033-1.636-2.046-3.303-3.121-4.929   c-3.08-4.662-6.515-9.032-11.094-12.319c-1.769-1.27-3.761-2.249-5.722-3.217c-0.543-0.268-1.423-0.228-2.005,0.015   c-6.229,2.599-11.041,6.98-15.034,12.304c-1.771,2.36-3.328,4.879-5.051,7.429c-5.645-8.163-11.753-15.944-21.293-20.093   c3.951,0.096,7.709,1.096,11.181,2.889C76.843,42.278,80.13,44.404,83.607,46.448z"
       id="path14"
       style="fill:#ffffff;fill-opacity:1" /><path
       fill-rule="evenodd"
       clip-rule="evenodd"
       d="M201.259,175.51c2.706,0,5.252,0,7.895,0c0.023,0.422,0.061,0.806,0.061,1.189   c0.003,7.399,0.069,14.799-0.044,22.197c-0.028,1.841-0.368,3.776-1.028,5.489c-1.746,4.528-5.546,6.171-10.075,6.392   c-1.618,0.079-3.29-0.062-4.876-0.394c-4.751-0.995-7.658-4.283-8.204-9.101c-0.13-1.148-0.197-2.311-0.2-3.467   c-0.018-6.959-0.009-13.918-0.009-20.878c0-0.436,0-0.873,0-1.396c2.66,0,5.239,0,7.999,0c0,0.479,0,0.942,0,1.405   c0,7.479-0.005,14.958,0.003,22.438c0.003,2.367,0.926,3.91,2.655,4.526c3.166,1.127,5.761-0.799,5.811-4.397   c0.053-3.879,0.012-7.759,0.013-11.639C201.259,183.799,201.259,179.723,201.259,175.51z"
       id="path16"
       style="fill:#ffffff;fill-opacity:1" /><path
       fill-rule="evenodd"
       clip-rule="evenodd"
       d="M97.979,175.537c2.746,0,5.324,0,7.999,0c0,0.556,0,1.029,0,1.502   c0,7.559-0.013,15.118,0.007,22.677c0.008,2.99,1.924,4.705,4.842,4.418c2.238-0.22,3.562-1.877,3.585-4.594   c0.029-3.439,0.007-6.879,0.007-10.318c0-4.12,0-8.239,0-12.358c0-0.429,0-0.858,0-1.334c2.7,0,5.28,0,7.903,0   c0.021,0.39,0.053,0.705,0.053,1.021c0.003,7.439,0.024,14.878-0.005,22.317c-0.022,5.745-2.479,9.799-7.118,11.146   c-2.136,0.621-4.481,0.557-6.737,0.714c-0.699,0.048-1.428-0.153-2.126-0.315c-4.934-1.14-7.865-4.507-8.276-9.577   c-0.129-1.591-0.125-3.195-0.128-4.792c-0.013-6.319-0.005-12.639-0.005-18.958C97.979,176.61,97.979,176.134,97.979,175.537z"
       id="path18"
       style="fill:#ffffff;fill-opacity:1" /><path
       fill-rule="evenodd"
       clip-rule="evenodd"
       d="M128.427,175.526c2.586,0,5.166,0,7.81,0c0,5.506,0,10.94,0,16.703   c0.323-0.488,0.501-0.709,0.629-0.957c2.549-4.931,5.103-9.859,7.624-14.804c0.365-0.716,0.774-1.065,1.641-1.038   c2.22,0.07,4.443,0.023,6.888,0.023c-1.364,2.628-2.604,5.028-3.854,7.423c-1.441,2.761-2.866,5.532-4.357,8.266   c-0.378,0.694-0.333,1.185,0.065,1.847c3.154,5.236,6.268,10.496,9.393,15.749c0.281,0.473,0.552,0.952,0.943,1.629   c-2.963,0-5.737,0.026-8.51-0.038c-0.303-0.007-0.675-0.485-0.879-0.827c-2.811-4.696-5.598-9.407-8.392-14.114   c-0.305-0.514-0.623-1.021-1.122-1.837c0,5.778,0,11.239,0,16.759c-2.704,0-5.248,0-7.879,0   C128.427,198.74,128.427,187.167,128.427,175.526z"
       id="path20"
       style="fill:#ffffff;fill-opacity:1" /><path
       fill-rule="evenodd"
       clip-rule="evenodd"
       d="M62.804,210.33c-2.538,0-5.009,0-7.607,0c-0.475-2.072-0.988-4.149-1.412-6.245   c-0.147-0.727-0.415-0.991-1.174-0.971c-1.958,0.053-3.918,0.058-5.875-0.001c-0.822-0.025-1.08,0.295-1.236,1.053   c-0.424,2.062-0.945,4.104-1.426,6.146c-2.594,0-5.096,0-7.701,0c0.991-3.822,1.958-7.563,2.931-11.303   c1.938-7.453,3.895-14.901,5.799-22.362c0.255-0.998,0.618-1.447,1.744-1.383c1.952,0.111,3.916,0.059,5.874,0.017   c0.745-0.016,1.107,0.153,1.316,0.963c2.889,11.204,5.823,22.397,8.742,33.593C62.808,209.948,62.792,210.072,62.804,210.33z    M52.361,197.372c-0.882-4.124-1.732-8.103-2.582-12.081c-0.081-0.004-0.161-0.008-0.242-0.012   c-0.872,4.006-1.745,8.012-2.633,12.093C48.774,197.372,50.479,197.372,52.361,197.372z"
       id="path22"
       style="fill:#ffffff;fill-opacity:1" /><path
       fill-rule="evenodd"
       clip-rule="evenodd"
       d="M182.266,210.31c-2.497,0-4.999,0-7.604,0c-0.468-2.035-0.983-4.078-1.391-6.143   c-0.152-0.77-0.418-1.076-1.234-1.052c-1.957,0.055-3.917,0.052-5.875,0c-0.76-0.02-1.021,0.248-1.17,0.976   c-0.426,2.067-0.951,4.115-1.448,6.222c-2.529,0-5.034,0-7.689,0c0.533-2.092,1.042-4.128,1.571-6.159   c2.394-9.19,4.808-18.375,7.168-27.573c0.249-0.97,0.6-1.364,1.656-1.314c2.034,0.095,4.076,0.046,6.114,0.017   c0.607-0.009,0.932,0.144,1.098,0.785c2.929,11.318,5.881,22.63,8.824,33.944C182.304,210.084,182.276,210.169,182.266,210.31z    M171.828,197.354c-0.868-4.044-1.722-8.021-2.576-11.998c-0.091,0.008-0.182,0.017-0.273,0.025   c-0.861,3.963-1.723,7.926-2.603,11.973C168.206,197.354,169.912,197.354,171.828,197.354z"
       id="path24"
       style="fill:#ffffff;fill-opacity:1" /><path
       fill-rule="evenodd"
       clip-rule="evenodd"
       d="M99.699,259.913c0,8.416,0,16.728,0,25.208c-1.581,0-3.129,0.037-4.673-0.037   c-0.265-0.013-0.593-0.462-0.748-0.779c-2.027-4.162-4.029-8.338-6.039-12.51c-0.154-0.319-0.322-0.633-0.689-0.934   c0,4.706,0,9.412,0,14.193c-1.908,0-3.649,0-5.461,0c0-8.375,0-16.715,0-25.232c1.634,0,3.296-0.043,4.952,0.041   c0.281,0.014,0.614,0.539,0.787,0.894c1.932,3.987,3.836,7.987,5.751,11.982c0.149,0.31,0.324,0.607,0.638,1.192   c0-4.854,0-9.387,0-14.019C96.06,259.913,97.827,259.913,99.699,259.913z"
       id="path26"
       style="fill:#ffffff;fill-opacity:1" /><path
       fill-rule="evenodd"
       clip-rule="evenodd"
       d="M24.183,235.794c0-4.545,0-9.089,0-13.708c1.818,0,3.56,0,5.388,0   c0,8.407,0,16.771,0,25.28c-1.541,0-3.049,0.045-4.551-0.039c-0.299-0.017-0.673-0.477-0.839-0.817   c-1.98-4.051-3.926-8.119-5.885-12.181c-0.2-0.415-0.421-0.82-0.845-1.187c0,4.682,0,9.363,0,14.135c-1.861,0-3.598,0-5.424,0   c0-8.343,0-16.717,0-25.257c1.602,0,3.229-0.052,4.848,0.045c0.318,0.019,0.698,0.572,0.885,0.958   c1.934,3.985,3.833,7.986,5.745,11.981c0.135,0.283,0.298,0.552,0.448,0.828C24.03,235.821,24.106,235.808,24.183,235.794z"
       id="path28"
       style="fill:#ffffff;fill-opacity:1" /><path
       fill-rule="evenodd"
       clip-rule="evenodd"
       d="M64.739,270.103c2.181,0,4.135,0,6.237,0c0-3.396,0-6.768,0-10.212   c2.007,0,3.868,0,5.806,0c0,8.342,0,16.686,0,25.136c-1.883,0-3.769,0-5.777,0c0-3.474,0-6.895,0-10.384c-2.102,0-4.082,0-6.189,0   c0,3.472,0,6.895,0,10.402c-1.982,0-3.838,0-5.766,0c0-8.366,0-16.706,0-25.14c1.83,0,3.685,0,5.69,0   C64.739,263.246,64.739,266.616,64.739,270.103z"
       id="path30"
       style="fill:#ffffff;fill-opacity:1" /><path
       fill-rule="evenodd"
       clip-rule="evenodd"
       d="M164.584,272.219c0.02,3.146-0.382,5.896-1.809,8.394   c-1.814,3.176-4.588,4.877-8.245,4.854c-3.62-0.023-6.453-1.713-8.038-4.943c-2.549-5.197-2.691-10.577-0.12-15.811   c1.681-3.422,4.601-5.291,8.495-5.199c4.113,0.098,6.856,2.317,8.471,5.995C164.316,267.737,164.638,270.106,164.584,272.219z    M158.873,272.414c-0.265-1.69-0.403-3.491-0.856-5.209c-0.494-1.87-1.808-2.744-3.484-2.704c-1.606,0.038-2.834,0.948-3.335,2.763   c-0.953,3.451-0.95,6.949-0.02,10.401c0.52,1.931,1.787,2.819,3.545,2.788c1.691-0.029,2.897-0.937,3.354-2.853   C158.472,275.945,158.605,274.228,158.873,272.414z"
       id="path32"
       style="fill:#ffffff;fill-opacity:1" /><path
       fill-rule="evenodd"
       clip-rule="evenodd"
       d="M123.809,271.54c-0.074,3.683-0.407,6.365-1.73,8.824   c-1.758,3.266-4.509,5.056-8.215,5.103c-3.673,0.045-6.528-1.645-8.183-4.902c-2.486-4.893-2.615-10.018-0.543-15.067   c1.716-4.183,5.303-6.267,9.562-5.956c3.858,0.281,7.142,3.117,8.303,7.389C123.489,268.724,123.651,270.607,123.809,271.54z    M118.011,272.517c-0.25-1.732-0.37-3.49-0.783-5.179c-0.46-1.883-1.737-2.813-3.392-2.839c-1.715-0.025-2.962,0.9-3.498,2.861   c-0.932,3.412-0.922,6.867-0.001,10.278c0.525,1.946,1.757,2.833,3.522,2.814c1.691-0.019,2.927-0.927,3.381-2.825   C117.636,275.976,117.76,274.257,118.011,272.517z"
       id="path34"
       style="fill:#ffffff;fill-opacity:1" /><path
       fill-rule="evenodd"
       clip-rule="evenodd"
       d="M171.258,234.499c-0.072-2.647,0.374-5.307,1.757-7.733   c1.843-3.231,4.598-5.112,8.377-5.044c3.822,0.069,6.7,1.969,8.234,5.423c2.248,5.058,2.272,10.262-0.091,15.305   c-1.569,3.347-4.383,5.132-8.109,5.225c-3.792,0.094-6.585-1.675-8.4-4.958C171.638,240.204,171.215,237.454,171.258,234.499z    M185.447,234.613c-0.261-1.697-0.394-3.456-0.827-5.138c-0.48-1.864-1.784-2.76-3.457-2.743c-1.63,0.017-2.838,0.894-3.361,2.719   c-0.986,3.445-0.995,6.939-0.044,10.392c0.536,1.949,1.816,2.899,3.5,2.876c1.696-0.023,2.962-0.995,3.425-2.957   C185.074,238.107,185.195,236.388,185.447,234.613z"
       id="path36"
       style="fill:#ffffff;fill-opacity:1" /><path
       fill-rule="evenodd"
       clip-rule="evenodd"
       d="M111.539,222.086c1.942,0,3.801,0,5.758,0c0,1.814,0,3.566,0,5.318   c0,3.876,0.006,7.752-0.001,11.629c-0.012,5.483-3.15,8.654-8.639,8.637c-1.264-0.004-2.568-0.14-3.781-0.478   c-3.14-0.876-5.128-3.418-5.238-7.229c-0.171-5.907-0.045-11.822-0.045-17.841c1.899,0,3.748,0,5.745,0c0,0.437,0,0.863,0,1.289   c0,5.275-0.015,10.55,0.007,15.825c0.011,2.559,1.417,3.883,3.677,3.58c1.214-0.164,1.98-0.842,2.268-1.993   c0.172-0.688,0.237-1.419,0.24-2.131c0.02-5.075,0.01-10.15,0.01-15.226C111.539,223.029,111.539,222.594,111.539,222.086z"
       id="path38"
       style="fill:#ffffff;fill-opacity:1" /><path
       fill-rule="evenodd"
       clip-rule="evenodd"
       d="M186.616,271.517c0,3.572,0.015,7.008-0.025,10.443   c-0.003,0.318-0.287,0.743-0.567,0.934c-3.639,2.475-7.56,3.554-11.767,1.714c-4.184-1.829-6.046-5.418-6.542-9.762   c-0.505-4.419,0.312-8.552,3.391-11.952c3.863-4.266,9.873-4.211,14.155-1.64c0.219,0.132,0.41,0.499,0.417,0.761   c0.04,1.51,0.02,3.021,0.02,4.701c-0.883-0.572-1.607-1.113-2.395-1.539c-4.076-2.206-8.208-0.43-9.383,4.023   c-0.173,0.652-0.299,1.326-0.364,1.999c-0.221,2.296-0.09,4.563,0.867,6.698c1.044,2.333,3.272,3.318,5.511,2.447   c0.339-0.133,0.776-0.543,0.801-0.854c0.094-1.181,0.038-2.373,0.038-3.686c-0.958,0-1.782,0-2.697,0c0-1.491,0-2.856,0-4.288   C180.893,271.517,183.675,271.517,186.616,271.517z"
       id="path40"
       style="fill:#ffffff;fill-opacity:1" /><path
       fill-rule="evenodd"
       clip-rule="evenodd"
       d="M26.316,280.678c3.076,0,6.066,0,9.159,0c0,1.479,0,2.884,0,4.373   c-4.959,0-9.896,0-14.925,0c0-8.394,0-16.765,0-25.187c4.867,0,9.691,0,14.591,0c0,1.441,0,2.854,0,4.394c-2.946,0-5.849,0-8.836,0   c0,1.98,0,3.833,0,5.812c2.757,0,5.462,0,8.238,0c0,1.505,0,2.887,0,4.402c-2.735,0-5.433,0-8.227,0   C26.316,276.579,26.316,278.556,26.316,280.678z"
       id="path42"
       style="fill:#ffffff;fill-opacity:1" /><path
       fill-rule="evenodd"
       clip-rule="evenodd"
       d="M146.596,226.428c0,1.975,0,3.8,0,5.763c2.688,0,5.383,0,8.169,0   c0,1.552,0,2.967,0,4.526c-2.719,0-5.41,0-8.162,0c0,2.123,0,4.104,0,6.222c3.039,0,6.056,0,9.143,0c0,1.519,0,2.9,0,4.357   c-4.982,0-9.918,0-14.951,0c0-8.372,0-16.735,0-25.191c4.855,0,9.704,0,14.628,0c0,1.406,0,2.788,0,4.322   C152.51,226.428,149.581,226.428,146.596,226.428z"
       id="path44"
       style="fill:#ffffff;fill-opacity:1" /><path
       fill-rule="evenodd"
       clip-rule="evenodd"
       d="M33.979,240.295c0.908,0.623,1.577,1.125,2.29,1.556   c0.543,0.328,1.12,0.632,1.721,0.825c1.354,0.433,2.575,0.138,3.188-0.682c0.624-0.833,0.563-2.038-0.371-3.206   c-0.869-1.087-1.908-2.037-2.852-3.065c-0.917-0.998-1.91-1.947-2.693-3.044c-1.732-2.425-2.261-5.082-0.598-7.728   c1.688-2.686,4.357-3.445,7.391-3.193c0.04,0.003,0.079,0.013,0.119,0.019c4.192,0.625,5.025,1.826,4.21,6.174   c-0.797-0.385-1.552-0.837-2.366-1.118c-0.817-0.282-1.693-0.547-2.544-0.548c-1.955-0.003-2.757,1.492-1.614,3.053   c0.819,1.119,1.887,2.054,2.826,3.086c1.074,1.18,2.232,2.3,3.17,3.581c2.039,2.781,2.17,5.974,0.505,8.513   c-1.658,2.527-4.84,3.7-8.147,3.001c-0.039-0.008-0.078-0.019-0.117-0.028c-3.735-0.863-4.118-1.338-4.117-5.108   C33.979,241.754,33.979,241.126,33.979,240.295z"
       id="path46"
       style="fill:#ffffff;fill-opacity:1" /><path
       fill-rule="evenodd"
       clip-rule="evenodd"
       d="M54.417,265.76c-0.669-0.328-1.158-0.583-1.659-0.811   c-3.484-1.581-6.784-0.144-7.885,3.515c-0.826,2.744-0.79,5.539,0.046,8.275c1.088,3.561,4.121,4.83,7.471,3.195   c0.702-0.342,1.369-0.758,2.22-1.234c0,1.625,0.06,3.09-0.043,4.545c-0.025,0.353-0.532,0.754-0.908,0.985   c-4.617,2.833-11.094,1.031-13.538-4.022c-2.595-5.365-2.48-10.898,0.449-16.105c3.098-5.508,9.291-5.35,13.337-3.436   c0.243,0.115,0.476,0.529,0.486,0.813C54.444,262.835,54.417,264.194,54.417,265.76z"
       id="path48"
       style="fill:#ffffff;fill-opacity:1" /><path
       fill-rule="evenodd"
       clip-rule="evenodd"
       d="M201.577,285.062c-1.972,0-3.838,0-5.853,0c-0.022-0.416-0.062-0.837-0.063-1.258   c-0.005-3.038,0.027-6.076-0.025-9.113c-0.012-0.688-0.184-1.433-0.49-2.048c-1.919-3.858-3.898-7.688-5.854-11.528   c-0.193-0.381-0.358-0.775-0.599-1.3c1.98,0,3.811-0.036,5.638,0.034c0.311,0.012,0.722,0.418,0.889,0.742   c1.127,2.199,2.202,4.426,3.417,6.896c0.707-1.734,1.335-3.26,1.952-4.791c1.16-2.882,1.158-2.883,4.254-2.883   c0.956,0,1.911,0,3.056,0c-0.367,0.844-0.667,1.564-0.992,2.272c-1.617,3.517-3.263,7.021-4.841,10.554   c-0.297,0.665-0.456,1.445-0.466,2.176C201.55,278.208,201.577,281.6,201.577,285.062z"
       id="path50"
       style="fill:#ffffff;fill-opacity:1" /><path
       fill-rule="evenodd"
       clip-rule="evenodd"
       d="M208.471,222.117c0,1.46,0,2.841,0,4.333c-2.482,0-4.901,0-7.386,0   c0,2.009,0,3.906,0,5.938c2.368,0,4.704,0,7.104,0c0,1.509,0,2.884,0,4.38c-2.374,0-4.71,0-7.179,0c0,3.572,0,7.025,0,10.539   c-1.991,0-3.848,0-5.768,0c0-8.406,0-16.746,0-25.19C199.626,222.117,203.995,222.117,208.471,222.117z"
       id="path52"
       style="fill:#ffffff;fill-opacity:1" /><path
       fill-rule="evenodd"
       clip-rule="evenodd"
       d="M55.417,247.287c0-6.946,0-13.834,0-20.822c-1.95,0-3.773,0-5.676,0   c0-1.478,0-2.858,0-4.346c5.674,0,11.363,0,17.166,0c0,1.365,0,2.773,0,4.3c-1.849,0-3.707,0-5.69,0c0,7.004,0,13.894,0,20.868   C59.242,247.287,57.395,247.287,55.417,247.287z"
       id="path54"
       style="fill:#ffffff;fill-opacity:1" /><path
       fill-rule="evenodd"
       clip-rule="evenodd"
       d="M96.624,222.099c0,1.451,0,2.806,0,4.292c-1.855,0-3.709,0-5.679,0   c0,7.019,0,13.91,0,20.89c-1.967,0-3.819,0-5.804,0c0-6.881,0-13.77,0-20.804c-1.979,0-3.83,0-5.739,0c0-1.527,0-2.909,0-4.378   C85.122,222.099,90.814,222.099,96.624,222.099z"
       id="path56"
       style="fill:#ffffff;fill-opacity:1" /><path
       fill-rule="evenodd"
       clip-rule="evenodd"
       d="M137.437,222.107c0,1.458,0,2.84,0,4.322c-1.881,0-3.705,0-5.656,0   c0,6.989,0,13.88,0,20.856c-1.981,0-3.834,0-5.804,0c0-6.892,0-13.785,0-20.807c-1.964,0-3.817,0-5.733,0c0-1.512,0-2.894,0-4.371   C125.933,222.107,131.623,222.107,137.437,222.107z"
       id="path58"
       style="fill:#ffffff;fill-opacity:1" /><path
       fill-rule="evenodd"
       clip-rule="evenodd"
       d="M17.199,259.899c0,1.45,0,2.834,0,4.351c-1.913,0-3.773,0-5.722,0   c0,6.992,0,13.854,0,20.799c-1.946,0-3.802,0-5.762,0c0-6.896,0-13.752,0-20.763c-1.952,0-3.804,0-5.715,0c0-1.536,0-2.919,0-4.387   C5.694,259.899,11.385,259.899,17.199,259.899z"
       id="path60"
       style="fill:#ffffff;fill-opacity:1" /><path
       fill-rule="evenodd"
       clip-rule="evenodd"
       d="M127.875,259.849c1.919,0,3.712,0,5.638,0c0,6.832,0,13.644,0,20.588   c3.105,0,6.08,0,9.159,0c0,1.58,0,3.031,0,4.591c-4.896,0-9.818,0-14.797,0C127.875,276.648,127.875,268.305,127.875,259.849z"
       id="path62"
       style="fill:#ffffff;fill-opacity:1" /><path
       fill-rule="evenodd"
       clip-rule="evenodd"
       d="M6.563,247.345c-1.89,0-3.686,0-5.573,0c0-8.398,0-16.77,0-25.237   c1.823,0,3.675,0,5.573,0C6.563,230.525,6.563,238.923,6.563,247.345z"
       id="path64"
       style="fill:#ffffff;fill-opacity:1" /><path
       fill-rule="evenodd"
       clip-rule="evenodd"
       d="M75.95,247.367c-1.783,0-3.458,0.001-5.135-0.003   c-0.149,0-0.299-0.044-0.498-0.076c0-8.41,0-16.775,0-25.206c1.905,0,3.764,0,5.633,0C75.95,230.542,75.95,238.934,75.95,247.367z"
       id="path66"
       style="fill:#ffffff;fill-opacity:1" /><path
       fill-rule="evenodd"
       clip-rule="evenodd"
       d="M153.868,295.677c0.152,3.408,0.302,6.742,0.455,10.148c-0.757,0-1.38,0-2.121,0   c-0.111-2.108-0.223-4.231-0.335-6.354c-0.07-0.02-0.141-0.04-0.211-0.06c-1.026,1.868-2.026,3.753-3.1,5.594   c-0.219,0.376-0.712,0.593-1.079,0.883c-0.238-0.351-0.586-0.67-0.694-1.057c-0.522-1.867-0.98-3.753-1.547-5.97   c-0.833,2.535-1.563,4.754-2.297,6.988c-0.721,0-1.393,0-2.23,0c0.727-2.27,1.424-4.457,2.127-6.643   c0.184-0.568,0.394-1.131,0.574-1.701c0.667-2.11,0.665-2.111,3.063-1.83c0.509,1.959,1.029,3.955,1.617,6.218   c0.913-1.687,1.722-3.163,2.515-4.649C151.579,295.419,151.573,295.417,153.868,295.677z"
       id="path68"
       style="fill:#ffffff;fill-opacity:1" /><path
       fill-rule="evenodd"
       clip-rule="evenodd"
       d="M38.147,295.605c-1.586,3.291-3.117,6.493-4.684,9.677   c-0.129,0.263-0.561,0.613-0.739,0.559c-0.278-0.086-0.574-0.451-0.663-0.756c-0.498-1.708-0.936-3.435-1.466-5.421   c-1.086,1.988-2.019,3.743-3.007,5.465c-0.185,0.32-0.598,0.51-0.905,0.76c-0.205-0.324-0.522-0.625-0.598-0.978   c-0.655-3.077-1.266-6.164-1.913-9.359c0.734,0,1.382,0,2.104,0c0.34,1.838,0.68,3.675,1.076,5.818   c0.986-1.81,1.81-3.403,2.724-4.942c0.242-0.407,0.762-0.648,1.155-0.967c0.259,0.393,0.633,0.752,0.757,1.184   c0.421,1.453,0.753,2.934,1.209,4.764c0.765-1.656,1.409-3.031,2.037-4.413C36.027,295.253,36.021,295.25,38.147,295.605z"
       id="path70"
       style="fill:#ffffff;fill-opacity:1" /><path
       fill-rule="evenodd"
       clip-rule="evenodd"
       d="M89.235,295.505c0.723,0,1.312,0,2.055,0c-0.261,1.98-0.514,3.895-0.807,6.113   c1.426-1.414,2.201-3.602,4.706-2.523c-0.787,0.983-1.593,1.992-2.452,3.066c0.82,1.138,1.63,2.262,2.451,3.4   c-2.841,1.157-3.33-1.544-4.822-2.91c-0.186,1.095-0.348,2.05-0.519,3.059c-0.662,0-1.287,0-2.037,0   C88.287,302.298,88.754,298.952,89.235,295.505z"
       id="path72"
       style="fill:#ffffff;fill-opacity:1" /><path
       fill-rule="evenodd"
       clip-rule="evenodd"
       d="M41.707,295.599c-0.161,1.237-0.323,2.482-0.491,3.771   c3.385-1.305,4.396-0.503,3.892,2.973c-0.091,0.631-0.18,1.263-0.261,1.895c-0.22,1.714-0.298,1.767-2.254,1.355   c0.168-1.165,0.399-2.337,0.478-3.518c0.034-0.505-0.181-1.436-0.404-1.474c-0.829-0.146-1.581,0.245-1.795,1.164   c-0.18,0.772-0.249,1.573-0.35,2.363c-0.225,1.764-0.221,1.765-2.229,1.53c0.104-0.92,0.188-1.847,0.316-2.769   c0.273-1.974,0.563-3.944,0.858-5.915C39.726,295.259,39.733,295.261,41.707,295.599z"
       id="path74"
       style="fill:#ffffff;fill-opacity:1" /><path
       fill-rule="evenodd"
       clip-rule="evenodd"
       d="M183.636,305.854c-0.689,0-1.28,0-2.047,0c0.478-3.427,0.947-6.798,1.423-10.22   c0.686,0,1.306,0,2.062,0c-0.265,1.969-0.523,3.889-0.822,6.11c1.445-1.386,2.207-3.653,4.798-2.556   c-0.673,0.808-1.323,1.64-2.032,2.417c-0.427,0.468-0.466,0.832-0.059,1.341c0.713,0.892,1.361,1.836,2.046,2.771   c-2.85,1.067-3.392-1.521-4.864-2.979C183.961,303.848,183.808,304.794,183.636,305.854z"
       id="path76"
       style="fill:#ffffff;fill-opacity:1" /><path
       fill-rule="evenodd"
       clip-rule="evenodd"
       d="M10.728,297.169c-0.425,2.965-0.82,5.727-1.224,8.541c-0.718,0-1.38,0-2.202,0   c0.382-2.83,0.754-5.582,1.144-8.471c-1.081,0-2.063,0-3.2,0c0.1-0.67,0.178-1.195,0.259-1.737c2.91,0,5.739,0,8.738,0   c-0.068,0.554-0.129,1.04-0.206,1.667C12.953,297.169,11.896,297.169,10.728,297.169z"
       id="path78"
       style="fill:#ffffff;fill-opacity:1" /><path
       fill-rule="evenodd"
       clip-rule="evenodd"
       d="M75.257,297.203c-1.094,0-2.074,0-3.162,0c0.056-0.606,0.099-1.072,0.152-1.643   c2.924,0,5.81,0,8.818,0c-0.082,0.502-0.163,0.999-0.265,1.622c-1.081,0-2.135,0-3.271,0c-0.343,2.353-0.677,4.585-0.991,6.821   c-0.271,1.932-0.26,1.933-2.441,1.65C74.475,302.913,74.851,300.169,75.257,297.203z"
       id="path80"
       style="fill:#ffffff;fill-opacity:1" /><path
       fill-rule="evenodd"
       clip-rule="evenodd"
       d="M54.294,298.738c-0.323,2.383-0.531,4.437-0.902,6.46   c-0.196,1.072-1.178,0.433-1.804,0.538c-0.396,0.067-0.85-0.122-1.222-0.01c-1.445,0.438-2.631-0.106-3.153-1.524   c-0.822-2.237,0.505-4.72,2.943-5.216C51.417,298.73,52.746,298.818,54.294,298.738z M51.958,300.574   c-1.807-0.017-2.728,0.76-2.798,2.255c-0.032,0.667,0.062,1.37,0.916,1.415c0.745,0.039,1.435-0.146,1.526-1.122   C51.679,302.294,51.828,301.475,51.958,300.574z"
       id="path82"
       style="fill:#ffffff;fill-opacity:1" /><path
       fill-rule="evenodd"
       clip-rule="evenodd"
       d="M121.69,298.759c-0.322,2.353-0.544,4.368-0.893,6.361   c-0.206,1.178-1.206,0.504-1.859,0.602c-0.371,0.055-0.793-0.114-1.136-0.006c-1.635,0.519-3.065-0.326-3.356-2.038   c-0.39-2.293,0.871-4.282,3.167-4.706C118.875,298.74,120.194,298.826,121.69,298.759z M119.319,300.582   c-1.908-0.003-2.965,1.044-2.712,2.627c0.062,0.389,0.624,1.032,0.858,0.991c0.534-0.092,1.282-0.429,1.447-0.857   C119.227,302.527,119.195,301.578,119.319,300.582z"
       id="path84"
       style="fill:#ffffff;fill-opacity:1" /><path
       fill-rule="evenodd"
       clip-rule="evenodd"
       d="M86.631,298.738c-0.358,2.532-0.667,4.722-1.001,7.089   c-0.73-0.087-1.373-0.19-2.018-0.229c-0.321-0.019-0.664,0.037-0.973,0.133c-1.424,0.443-2.526-0.067-3.071-1.454   c-0.856-2.178,0.366-4.714,2.715-5.242C83.632,298.731,85.071,298.83,86.631,298.738z M84.237,300.65   c-1.818-0.466-2.917,1.16-2.7,2.497c0.066,0.408,0.578,1.091,0.803,1.059c0.546-0.076,1.341-0.387,1.499-0.806   C84.16,302.547,84.127,301.56,84.237,300.65z"
       id="path86"
       style="fill:#ffffff;fill-opacity:1" /><path
       fill-rule="evenodd"
       clip-rule="evenodd"
       d="M196.054,305.892c-1.389,0-2.624,0-3.858,0c-1.374,0-2.18-0.709-2.407-2.118   c-0.36-2.233,0.756-4.122,2.974-4.608c1.323-0.291,2.731-0.197,4.271-0.287C196.684,301.381,196.377,303.579,196.054,305.892z    M194.67,300.705c-1.831-0.057-2.889,0.9-2.73,2.477c0.044,0.44,0.655,1.224,0.82,1.178c0.567-0.157,1.309-0.504,1.508-0.978   C194.594,302.605,194.547,301.671,194.67,300.705z"
       id="path88"
       style="fill:#ffffff;fill-opacity:1" /><path
       fill-rule="evenodd"
       clip-rule="evenodd"
       d="M163.358,298.842c-0.363,2.605-0.665,4.765-0.984,7.046   c-1.506,0-2.98,0.06-4.446-0.021c-1.016-0.055-1.48-0.86-1.729-1.74c-0.61-2.159,0.485-4.359,2.651-4.899   C160.232,298.882,161.721,298.966,163.358,298.842z M160.997,300.718c-1.941-0.286-2.87,1.145-2.731,2.399   c0.052,0.468,0.575,0.883,0.882,1.321c0.504-0.356,1.255-0.61,1.456-1.093C160.924,302.576,160.878,301.654,160.997,300.718z"
       id="path90"
       style="fill:#ffffff;fill-opacity:1" /><path
       fill-rule="evenodd"
       clip-rule="evenodd"
       d="M131.497,305.892c-2.095-0.003-3.421-1.285-3.397-3.287   c0.025-2.063,1.742-3.697,3.895-3.709c2.098-0.013,3.43,1.287,3.425,3.295C135.414,304.301,133.646,306.203,131.497,305.892z    M133.246,302.002c-0.05-0.755-0.363-1.386-1.343-1.382c-0.906,0.003-1.66,0.996-1.642,2.151c0.014,0.879,0.386,1.467,1.345,1.473   C132.519,304.25,133.256,303.266,133.246,302.002z"
       id="path92"
       style="fill:#ffffff;fill-opacity:1" /><path
       fill-rule="evenodd"
       clip-rule="evenodd"
       d="M199.155,299.021c0.708,0,1.293,0,2.033,0c-0.161,1.273-0.316,2.484-0.467,3.694   c-0.082,0.654-0.358,1.57,0.557,1.651c0.835,0.073,1.568-0.504,1.704-1.509c0.171-1.257,0.358-2.513,0.546-3.819   c0.696,0,1.317,0,2.061,0c-0.322,2.299-0.635,4.529-0.98,7c-0.776-0.182-1.45-0.37-2.137-0.483   c-0.233-0.038-0.504,0.096-0.748,0.181c-2.202,0.76-3.502-0.303-3.158-2.574C198.772,301.792,198.957,300.417,199.155,299.021z"
       id="path94"
       style="fill:#ffffff;fill-opacity:1" /><path
       fill-rule="evenodd"
       clip-rule="evenodd"
       d="M105.366,298.961c0.687,0,1.306,0,2.066,0c-0.32,2.271-0.632,4.492-0.984,6.987   c-0.776-0.22-1.433-0.433-2.104-0.579c-0.188-0.041-0.424,0.098-0.628,0.178c-2.346,0.917-3.642-0.137-3.28-2.668   c0.185-1.294,0.364-2.588,0.553-3.927c0.704,0,1.324,0,2.056,0c-0.165,1.27-0.393,2.475-0.447,3.687   c-0.024,0.532,0.303,1.08,0.471,1.621c0.581-0.454,1.482-0.803,1.674-1.386C105.146,301.654,105.175,300.31,105.366,298.961z"
       id="path96"
       style="fill:#ffffff;fill-opacity:1" /><path
       fill-rule="evenodd"
       clip-rule="evenodd"
       d="M166.616,305.848c-0.728,0-1.317,0-2.059,0c0.318-2.287,0.628-4.511,0.98-7.041   c0.764,0.216,1.405,0.443,2.066,0.56c0.269,0.048,0.587-0.129,0.87-0.235c2.01-0.76,3.251,0.106,3.093,2.241   c-0.108,1.463-0.352,2.916-0.544,4.442c-0.71,0-1.363,0-2.084,0c0.167-1.271,0.399-2.482,0.456-3.702   c0.025-0.54-0.304-1.096-0.473-1.645c-0.574,0.472-1.458,0.84-1.656,1.438C166.858,303.127,166.819,304.471,166.616,305.848z"
       id="path98"
       style="fill:#ffffff;fill-opacity:1" /><path
       fill-rule="evenodd"
       clip-rule="evenodd"
       d="M14.872,302.815c0.166,1.515,0.309,1.553,3.832,1.025   c-0.129,1.666-0.309,1.842-2.067,2.029c-1.622,0.174-2.974-0.418-3.56-1.641c-0.703-1.466-0.517-2.874,0.484-4.146   c0.914-1.16,2.479-1.613,3.876-1.176c1.298,0.406,2.161,1.754,1.859,3.078c-0.063,0.274-0.557,0.61-0.875,0.636   c-1.109,0.091-2.229,0.057-3.345,0.078C15.007,302.701,14.94,302.774,14.872,302.815z M17.13,301.315   c0.086-0.107,0.172-0.215,0.259-0.323c-0.342-0.266-0.716-0.778-1.02-0.74c-0.474,0.061-0.9,0.496-1.347,0.771   c0.052,0.098,0.104,0.195,0.157,0.292C15.829,301.315,16.479,301.315,17.13,301.315z"
       id="path100"
       style="fill:#ffffff;fill-opacity:1" /><path
       fill-rule="evenodd"
       clip-rule="evenodd"
       d="M175.935,299.089c-0.175,1.241-0.375,2.416-0.493,3.599   c-0.063,0.628-0.371,1.59,0.547,1.684c0.838,0.086,1.584-0.512,1.732-1.495c0.189-1.258,0.347-2.521,0.525-3.836   c0.657,0,1.242,0,2.045,0c-0.297,2.234-0.593,4.455-0.929,6.983c-0.754-0.185-1.438-0.375-2.134-0.507   c-0.196-0.037-0.43,0.08-0.637,0.156c-2.367,0.865-3.685-0.222-3.285-2.712c0.127-0.787,0.251-1.574,0.354-2.364   C173.888,298.854,173.882,298.853,175.935,299.089z"
       id="path102"
       style="fill:#ffffff;fill-opacity:1" /><path
       fill-rule="evenodd"
       clip-rule="evenodd"
       d="M67.305,303.763c0.109,1.249-0.384,1.838-1.542,2.036   c-1.74,0.299-3.345-0.158-4.022-1.4c-0.725-1.329-0.659-2.699,0.156-3.976c0.774-1.213,1.95-1.77,3.364-1.672   c1.977,0.138,2.904,1.584,2.469,3.896c-1.395,0-2.818,0-4.24,0C63.527,304.407,64.184,304.582,67.305,303.763z M65.805,301.317   c0.063-0.128,0.125-0.255,0.188-0.382c-0.376-0.247-0.773-0.717-1.124-0.684c-0.424,0.039-0.81,0.502-1.211,0.781   c0.058,0.095,0.115,0.189,0.173,0.284C64.488,301.317,65.146,301.317,65.805,301.317z"
       id="path104"
       style="fill:#ffffff;fill-opacity:1" /><path
       fill-rule="evenodd"
       clip-rule="evenodd"
       d="M57.439,305.708c-0.658,0-1.283,0-2.037,0c0.321-2.279,0.634-4.502,0.969-6.885   c0.793,0.103,1.477,0.19,2.161,0.277c0.694-0.133,1.553-0.886,2.226,0.088c0.303,0.438-0.102,1.365-0.197,2.162   c-1.758-0.875-2.321-0.572-2.607,1.132c-0.092,0.55-0.147,1.105-0.234,1.656C57.639,304.645,57.54,305.149,57.439,305.708z"
       id="path106"
       style="fill:#ffffff;fill-opacity:1" /><path
       fill-rule="evenodd"
       clip-rule="evenodd"
       d="M108.617,305.66c0.321-2.268,0.632-4.467,0.967-6.829   c0.789,0.099,1.476,0.185,2.163,0.271c0.868-0.354,1.764-0.812,2.614,0.458c-0.275,0.561-0.554,1.127-0.835,1.697   c-1.383-0.791-2.065-0.484-2.349,1.017c-0.119,0.627-0.172,1.265-0.275,1.895C110.622,305.889,110.618,305.888,108.617,305.66z"
       id="path108"
       style="fill:#ffffff;fill-opacity:1" /><path
       fill-rule="evenodd"
       clip-rule="evenodd"
       d="M98.832,299.001c-0.326,2.278-0.641,4.479-0.961,6.717c-0.678,0-1.263,0-2.044,0   c0.301-2.242,0.595-4.428,0.902-6.717C97.418,299.001,98.095,299.001,98.832,299.001z"
       id="path110"
       style="fill:#ffffff;fill-opacity:1" /><path
       fill-rule="evenodd"
       clip-rule="evenodd"
       d="M98.084,298.514c-0.529-0.671-1.084-1.068-1.066-1.437   c0.019-0.387,0.527-0.956,0.929-1.071c0.665-0.19,1.192,0.298,1.101,0.991C98.991,297.429,98.551,297.81,98.084,298.514z"
       id="path112"
       style="fill:#ffffff;fill-opacity:1" /></g></svg>