<?xml version="1.0" encoding="UTF-8" standalone="no"?>
<!-- Generator: Adobe Illustrator 16.0.0, SVG Export Plug-In . SVG Version: 6.00 Build 0)  -->

<svg
   xmlns:dc="http://purl.org/dc/elements/1.1/"
   xmlns:cc="http://creativecommons.org/ns#"
   xmlns:rdf="http://www.w3.org/1999/02/22-rdf-syntax-ns#"
   xmlns:svg="http://www.w3.org/2000/svg"
   xmlns="http://www.w3.org/2000/svg"
   xmlns:sodipodi="http://sodipodi.sourceforge.net/DTD/sodipodi-0.dtd"
   xmlns:inkscape="http://www.inkscape.org/namespaces/inkscape"
   version="1.1"
   id="Layer_1"
   x="0px"
   y="0px"
   width="146.639px"
   height="143.348px"
   viewBox="0 0 146.639 143.348"
   enable-background="new 0 0 146.639 143.348"
   xml:space="preserve"
   sodipodi:docname="Manukau Logo NoText.svg"
   inkscape:version="0.92.1 r15371"><metadata
     id="metadata17"><rdf:RDF><cc:Work
         rdf:about=""><dc:format>image/svg+xml</dc:format><dc:type
           rdf:resource="http://purl.org/dc/dcmitype/StillImage" /></cc:Work></rdf:RDF></metadata><defs
     id="defs15" /><sodipodi:namedview
     pagecolor="#ffffff"
     bordercolor="#666666"
     borderopacity="1"
     objecttolerance="10"
     gridtolerance="10"
     guidetolerance="10"
     inkscape:pageopacity="0"
     inkscape:pageshadow="2"
     inkscape:window-width="1920"
     inkscape:window-height="1017"
     id="namedview13"
     showgrid="false"
     inkscape:zoom="1.6463431"
     inkscape:cx="73.319504"
     inkscape:cy="71.674004"
     inkscape:window-x="-8"
     inkscape:window-y="-8"
     inkscape:window-maximized="1"
     inkscape:current-layer="Layer_1" /><path
     fill-rule="evenodd"
     clip-rule="evenodd"
     d="M51.381,0c-3.292,2.237-6.759,4.258-9.842,6.753  c-9.207,7.449-15.373,17.116-19.689,28.031c-3.804,9.619-5.854,19.645-6.767,29.923c-0.088,0.995-0.164,1.991-0.238,2.987  c-0.009,0.116,0.028,0.235,0.058,0.456c38.723,0,77.449,0,116.385,0c0.529-13.838-2.377-26.831-8.827-39.013  C115.977,16.888,106.491,7.484,94.77,0.1c0.463,0.089,0.944,0.124,1.386,0.273c18.715,6.354,32.794,18.225,42.106,35.65  c6.245,11.687,8.852,24.24,8.306,37.454c-0.094,2.271-0.458,4.531-0.621,6.801c-0.059,0.827-0.396,1.075-1.174,1.104  c-4.99,0.188-9.978,0.487-14.969,0.605c-9.35,0.22-18.702,0.433-28.054,0.483c-13.872,0.074-27.737-0.305-41.579-1.263  c-13.801-0.956-27.545-2.39-41.063-5.481C13.025,74.334,7.07,72.548,1.373,69.95c-1.075-0.49-1.418-1.098-1.368-2.264  c0.673-15.671,5.602-29.825,15.173-42.274C23.925,14.034,35.095,5.904,48.606,1.025c0.933-0.337,1.899-0.584,2.85-0.873  C51.431,0.101,51.406,0.051,51.381,0z"
     id="path2"
     style="fill:#ffffff;fill-opacity:1" /><path
     fill-rule="evenodd"
     clip-rule="evenodd"
     d="M2.324,88.269c47.153,0,94.198,0,141.242,0c0.015,0.072,0.03,0.144,0.045,0.216  c-3.654,0.945-7.294,1.95-10.965,2.825c-14.082,3.357-28.337,5.744-42.713,7.404c-11.317,1.308-22.67,2.141-34.061,2.515  c-14.675,0.482-29.33,0.211-43.974-0.815c-1.554-0.109-3.107-0.246-4.656-0.414c-0.311-0.034-0.763-0.188-0.875-0.42  C4.627,95.979,3.279,92.237,2.324,88.269z"
     id="path4"
     style="fill:#ffffff;fill-opacity:1" /><path
     fill-rule="evenodd"
     clip-rule="evenodd"
     d="M11.455,107.835c41.496,0,82.992,0,124.71,0c-0.56,0.896-0.979,1.695-1.518,2.403  c-2.322,3.049-4.654,6.091-7.05,9.082c-0.345,0.431-1.034,0.757-1.598,0.816c-14.987,1.586-29.996,1.6-45.015,0.515  c-23.267-1.681-46.11-5.724-68.503-12.278c-0.37-0.108-0.733-0.241-1.099-0.362C11.407,107.952,11.431,107.894,11.455,107.835z"
     id="path6"
     style="fill:#ffffff;fill-opacity:1" /><path
     fill-rule="evenodd"
     clip-rule="evenodd"
     d="M27.986,127.545c30.232,3.714,60.435,4.44,90.677,0.01  c-11.729,9.279-25.057,14.56-39.997,15.598C59.782,144.464,42.902,139.141,27.986,127.545z"
     id="path8"
     style="fill:#ffffff;fill-opacity:1" /><path
     fill-rule="evenodd"
     clip-rule="evenodd"
     d="M52.216,46.448c5.432-5.263,12.351-8.119,20.178-9.483  c-2.546-4.566-5.749-8.379-9.673-11.594c-3.894-3.19-8.275-5.534-12.953-7.368c8.571,0.63,16.492,2.992,23.191,8.739  c6.593-5.328,14.322-7.624,22.526-8.791c-8.967,4.315-16.757,9.958-21.879,18.995c7.764,1.242,14.511,4.504,20.651,9.435  c5.841-5.71,13.07-8.374,20.956-9.484c-2.126,1.262-4.385,2.381-6.387,3.85c-2.083,1.528-4.043,3.274-5.826,5.146  c-1.756,1.844-3.319,3.896-4.788,5.982c-1.468,2.085-2.714,4.326-4.084,6.54c-1.033-1.636-2.046-3.303-3.121-4.929  c-3.08-4.662-6.515-9.032-11.094-12.319c-1.769-1.27-3.761-2.249-5.722-3.217c-0.543-0.268-1.423-0.228-2.005,0.015  c-6.229,2.599-11.041,6.98-15.034,12.304c-1.771,2.36-3.328,4.879-5.051,7.429c-5.645-8.163-11.753-15.944-21.293-20.093  c3.951,0.096,7.709,1.096,11.181,2.889C45.452,42.278,48.739,44.404,52.216,46.448z"
     id="path10"
     style="fill:#ffffff;fill-opacity:1" /></svg>